<svg xmlns="http://www.w3.org/2000/svg" width="143.175" height="38" viewBox="0 0 143.175 38">
    <g id="nomadrental-logo" transform="translate(-173 -13.975)">
        <g id="Group_58" data-name="Group 58" transform="translate(173 13.975)">
            <g id="Group_56" data-name="Group 56" transform="translate(0 0)" opacity="0.4">
                <path id="Path_34" data-name="Path 34"
                      d="M15.635,0C10.5,1.009,7.818,1.567,2.68,2.572A3.081,3.081,0,0,0,0,5.364V20.888A3.3,3.3,0,0,0,2.68,23.68c5.137.894,7.818,1.452,12.955,2.457,1.452.335,2.68-.894,2.68-2.569v-21A2.331,2.331,0,0,0,15.635,0ZM13.067,14.857a1.787,1.787,0,1,1,1.787-1.787,1.764,1.764,0,0,1-1.787,1.787Z"
                      transform="translate(0 0.025)" fill="#838eab"/>
                <path id="Path_35" data-name="Path 35"
                      d="M31.821,29.286a15.34,15.34,0,0,1-23.676,0c-1.452-1.675,1.117-3.8,2.569-2.122a12.042,12.042,0,0,0,18.54,0c1.451-1.562,4.019.448,2.567,2.123Z"
                      transform="translate(0.901 3.13)" fill="#838eab"/>
            </g>
            <g id="Group_57" data-name="Group 57" transform="translate(27.139 6.617)">
                <path id="Path_36" data-name="Path 36"
                      d="M24.3,6.7h3.015l5.919,9.493h0V6.7h2.234V19.32h-2.9L26.534,9.492h0V19.32H24.3Z"
                      transform="translate(-24.3 -5.806)" fill="#838eab"/>
                <path id="Path_37" data-name="Path 37"
                      d="M36.188,14.579a5.217,5.217,0,0,1,.335-1.9,4.25,4.25,0,0,1,1.005-1.452,3.942,3.942,0,0,1,1.452-.894A5.058,5.058,0,0,1,40.767,10a4.836,4.836,0,0,1,3.239,1.229,4.25,4.25,0,0,1,1.005,1.452,4.813,4.813,0,0,1,.335,1.9,4.813,4.813,0,0,1-.335,1.9,4.25,4.25,0,0,1-1.005,1.452,3.942,3.942,0,0,1-1.452.894,5.058,5.058,0,0,1-1.787.335,4.834,4.834,0,0,1-3.239-1.229,4.775,4.775,0,0,1-1.005-1.452A4.813,4.813,0,0,1,36.188,14.579Zm2.234,0a3.092,3.092,0,0,0,.112,1.005,2.245,2.245,0,0,0,.447.894,4.857,4.857,0,0,0,.782.67,2.9,2.9,0,0,0,2.234,0,1.5,1.5,0,0,0,.782-.67,2.245,2.245,0,0,0,.447-.894,3.092,3.092,0,0,0,.112-1.005,3.092,3.092,0,0,0-.112-1.005,2.245,2.245,0,0,0-.447-.894A4.857,4.857,0,0,0,42,12.01a1.837,1.837,0,0,0-1.117-.223,3.3,3.3,0,0,0-1.117.223,1.5,1.5,0,0,0-.782.67,2.245,2.245,0,0,0-.447.894A3.092,3.092,0,0,0,38.422,14.579Z"
                      transform="translate(-22.898 -5.421)" fill="#838eab"/>
                <path id="Path_38" data-name="Path 38"
                      d="M56.64,10.07a3.092,3.092,0,0,1,1.452.335,2.431,2.431,0,0,1,1.005.782,3.493,3.493,0,0,1,.558,1.117,5.606,5.606,0,0,1,.223,1.34v5.249H57.756V13.308a2.07,2.07,0,0,0-.223-.782,2.436,2.436,0,0,0-.447-.558,1.614,1.614,0,0,0-.782-.223,2.1,2.1,0,0,0-.893.223,1.346,1.346,0,0,0-.558.558,5.445,5.445,0,0,0-.335.782,2.18,2.18,0,0,0-.112.782v4.8H52.284V13.756a2.381,2.381,0,0,0-.335-1.34,1.441,1.441,0,0,0-1.229-.558,2.631,2.631,0,0,0-.894.223,1.346,1.346,0,0,0-.558.558,5.444,5.444,0,0,0-.335.782,2.459,2.459,0,0,0-.112.894v4.578H46.7v-8.6h2.01v1.34h0a2.442,2.442,0,0,1,.335-.558c.112-.223.335-.335.558-.558s.447-.223.782-.335a2.459,2.459,0,0,1,.894-.112,2.691,2.691,0,0,1,1.675.447,2.731,2.731,0,0,1,1.005,1.229,3.983,3.983,0,0,1,1.117-1.229A2.363,2.363,0,0,1,56.64,10.07Z"
                      transform="translate(-21.684 -5.379)" fill="#838eab"/>
                <path id="Path_39" data-name="Path 39"
                      d="M66.127,17.794h0a2.333,2.333,0,0,1-1.117.894,3.729,3.729,0,0,1-1.675.335,4.19,4.19,0,0,1-1.117-.112,3.967,3.967,0,0,1-1.005-.447,2.609,2.609,0,0,1-.782-.782,2.251,2.251,0,0,1-.335-1.229,2.421,2.421,0,0,1,.558-1.564A3.6,3.6,0,0,1,62.107,14a9.466,9.466,0,0,1,1.9-.447,12.138,12.138,0,0,1,2.01-.112v-.112a1.6,1.6,0,0,0-.558-1.229,2.653,2.653,0,0,0-1.34-.335,2.974,2.974,0,0,0-1.34.335,3.9,3.9,0,0,0-1.005.67l-1.117-1.34a4.205,4.205,0,0,1,1.675-1.005,5.673,5.673,0,0,1,1.9-.335,4.813,4.813,0,0,1,1.9.335,2.229,2.229,0,0,1,1.117.894,2.629,2.629,0,0,1,.558,1.117,5.606,5.606,0,0,1,.223,1.341v5.137h-2.01V17.794ZM66.016,15H64.452a2.667,2.667,0,0,0-1.005.223,1.8,1.8,0,0,0-.782.447,1.2,1.2,0,0,0-.223,1.34l.335.335c.112.112.335.112.447.223h.559a2.312,2.312,0,0,0,1.675-.558,2.209,2.209,0,0,0,.558-1.564V15Z"
                      transform="translate(-20.115 -5.397)" fill="#838eab"/>
                <path id="Path_40" data-name="Path 40"
                      d="M78.267,19.413h-2.01V18.073h0a2.97,2.97,0,0,1-1.229,1.117,4.682,4.682,0,0,1-1.675.447,4.63,4.63,0,0,1-1.787-.335,3.049,3.049,0,0,1-1.34-1.005,6.337,6.337,0,0,1-.894-1.452,4.931,4.931,0,0,1,0-3.573,3.94,3.94,0,0,1,.894-1.452,6.012,6.012,0,0,1,1.34-1.005,4.481,4.481,0,0,1,1.675-.335,2.478,2.478,0,0,1,1.005.112,5.444,5.444,0,0,1,.782.335,1.115,1.115,0,0,1,.558.447c.112.223.335.335.447.447h0V5.9h2.123V19.413Zm-7.036-4.355a3.092,3.092,0,0,0,.112,1.005,2.245,2.245,0,0,0,.447.894,4.857,4.857,0,0,0,.782.67,3.3,3.3,0,0,0,1.117.223,2.23,2.23,0,0,0,1.005-.223,1.5,1.5,0,0,0,.782-.67,2.245,2.245,0,0,0,.447-.894,3.262,3.262,0,0,0,.223-1.005,3.262,3.262,0,0,0-.223-1.005,6.637,6.637,0,0,0-.447-.894,4.857,4.857,0,0,0-.782-.67,1.66,1.66,0,0,0-1.005-.223,3.3,3.3,0,0,0-1.117.223,1.5,1.5,0,0,0-.782.67,2.245,2.245,0,0,0-.447.894,3.092,3.092,0,0,0-.112,1.005Z"
                      transform="translate(-19.076 -5.9)" fill="#838eab"/>
                <path id="Path_41" data-name="Path 41"
                      d="M83.7,6.7h4.356a9.775,9.775,0,0,1,1.787.223,3.461,3.461,0,0,1,1.452.67A3.167,3.167,0,0,1,92.3,8.71a3.7,3.7,0,0,1,.447,1.676,3.042,3.042,0,0,1-.782,2.234,3.578,3.578,0,0,1-2.122,1.117l3.35,5.584h-2.68l-2.9-5.361H85.934V19.32H83.7Zm4.132,5.472a3.092,3.092,0,0,0,1.005-.112,2.631,2.631,0,0,0,.894-.223,2.961,2.961,0,0,0,.67-.558,1.9,1.9,0,0,0,0-1.787,1.346,1.346,0,0,0-.558-.558,2.07,2.07,0,0,0-.782-.223c-.223,0-.558-.112-.894-.112h-2.01v3.574h1.675Z"
                      transform="translate(-17.361 -5.806)" fill="#838eab"/>
                <path id="Path_42" data-name="Path 42"
                      d="M101.7,14.788v.67H95.22a2.631,2.631,0,0,0,.223.894,2.961,2.961,0,0,0,.558.67,1.8,1.8,0,0,0,.782.447,2.459,2.459,0,0,0,.894.112,2.381,2.381,0,0,0,1.34-.335,3.011,3.011,0,0,0,.894-.782l1.452,1.117a4.462,4.462,0,0,1-3.686,1.675,4.63,4.63,0,0,1-1.787-.335,6.328,6.328,0,0,1-1.452-.894,3.4,3.4,0,0,1-1.005-1.452,5.548,5.548,0,0,1,0-3.8,4.25,4.25,0,0,1,1.005-1.452,3.942,3.942,0,0,1,1.452-.894,4.63,4.63,0,0,1,1.787-.335,4.481,4.481,0,0,1,1.675.335,3.535,3.535,0,0,1,1.34.894,3.942,3.942,0,0,1,.894,1.452C101.586,13.336,101.7,14.006,101.7,14.788Zm-2.122-1A1.9,1.9,0,0,0,99.463,13l-.335-.67a1.026,1.026,0,0,0-.67-.447,2.1,2.1,0,0,0-.893-.223,2.743,2.743,0,0,0-1.675.558,2.028,2.028,0,0,0-.67,1.564Z"
                      transform="translate(-16.261 -5.407)" fill="#838eab"/>
                <path id="Path_43" data-name="Path 43"
                      d="M102.7,10.32h2.01v1.34h0a3.168,3.168,0,0,1,1.005-1.117,2.691,2.691,0,0,1,1.675-.447,3.091,3.091,0,0,1,1.452.335,2.431,2.431,0,0,1,1.005.782,3.494,3.494,0,0,1,.558,1.117,5.608,5.608,0,0,1,.223,1.34v5.249h-2.122V13.335a2.071,2.071,0,0,0-.223-.782,2.437,2.437,0,0,0-.447-.558,1.614,1.614,0,0,0-.782-.223,2.1,2.1,0,0,0-.893.223,2.961,2.961,0,0,0-.67.558,1.667,1.667,0,0,0-.335.782,2.459,2.459,0,0,0-.112.894v4.691h-2.122v-8.6Z"
                      transform="translate(-15.142 -5.406)" fill="#838eab"/>
                <path id="Path_44" data-name="Path 44"
                      d="M110.9,12.343V10.669h1.452V8.1h2.122v2.457H116.6v1.675h-2.122v4.021a2.1,2.1,0,0,0,.223.894c.112.223.447.335.893.335h.447c.112,0,.335-.112.447-.112l.112,1.787c-.223.112-.447.112-.67.223-.223,0-.558.112-.782.112a4.165,4.165,0,0,1-1.34-.223,1.737,1.737,0,0,1-.894-.67,2.759,2.759,0,0,1-.447-1.005,3.8,3.8,0,0,1-.112-1.117V12.456H110.9Z"
                      transform="translate(-14.184 -5.643)" fill="#838eab"/>
                <path id="Path_45" data-name="Path 45"
                      d="M122.827,17.794h0a2.333,2.333,0,0,1-1.117.894,3.73,3.73,0,0,1-1.675.335,4.189,4.189,0,0,1-1.117-.112,3.967,3.967,0,0,1-1.005-.447,2.609,2.609,0,0,1-.782-.782,2.251,2.251,0,0,1-.335-1.229,2.421,2.421,0,0,1,.558-1.564A3.6,3.6,0,0,1,118.807,14a9.468,9.468,0,0,1,1.9-.447,12.139,12.139,0,0,1,2.01-.112v-.112a1.6,1.6,0,0,0-.558-1.229,2.653,2.653,0,0,0-1.34-.335,2.974,2.974,0,0,0-1.34.335,3.9,3.9,0,0,0-1.005.67l-1.117-1.34a4.205,4.205,0,0,1,1.675-1.005,5.672,5.672,0,0,1,1.9-.335,4.813,4.813,0,0,1,1.9.335,2.229,2.229,0,0,1,1.117.894,2.629,2.629,0,0,1,.558,1.117,5.606,5.606,0,0,1,.223,1.341v5.137h-2.01V17.794Zm0-2.792h-1.563a2.23,2.23,0,0,0-1.005.223,1.8,1.8,0,0,0-.782.447,1.2,1.2,0,0,0-.223,1.34l.335.335c.112.112.335.112.447.223h.558a2.312,2.312,0,0,0,1.675-.558,2.209,2.209,0,0,0,.558-1.564Z"
                      transform="translate(-13.492 -5.397)" fill="#838eab"/>
                <path id="Path_46" data-name="Path 46" d="M126.3,5.9h2.122V19.413H126.3Z"
                      transform="translate(-12.385 -5.9)" fill="#838eab"/>
            </g>
        </g>
    </g>
</svg>
